<svg width="133" height="55" viewBox="0 0 133 55" fill="none" xmlns="http://www.w3.org/2000/svg">
<path d="M18.7731 0C20.836 0 22.2595 0.866618 23.0228 2.59985C23.4148 3.46647 23.6004 4.51879 23.6004 5.73618C23.6004 8.21224 22.8578 9.9042 21.3518 10.7915C20.6091 11.2248 19.7633 11.4517 18.7731 11.4517H13.3062V16.1356H10.2942V11.4517H4.82736C3.83713 11.4517 2.97068 11.2248 2.24864 10.7915C0.742671 9.88357 0 8.21224 0 5.73618C0 4.51879 0.185668 3.46647 0.577633 2.59985C1.36156 0.866618 2.76439 0 4.82736 0H18.7731ZM10.2942 8.58364V2.86809H5.21933C4.51791 2.86809 3.98154 3.15697 3.63084 3.73471C3.32139 4.22992 3.15635 4.8902 3.15635 5.73618C3.15635 6.58217 3.32139 7.24245 3.63084 7.71703C3.98154 8.29477 4.51791 8.58364 5.21933 8.58364H10.2942ZM18.3811 8.58364C19.0825 8.58364 19.6189 8.29477 19.9696 7.71703C20.279 7.22182 20.4441 6.56153 20.4441 5.73618C20.4441 4.91083 20.279 4.22992 19.9696 3.73471C19.6189 3.15697 19.0825 2.86809 18.3811 2.86809H13.3062V8.58364H18.3811Z" fill="white"/>
<path d="M29.3767 0H39.0727C40.1042 0 40.9912 0.412675 41.7133 1.23803C42.4353 2.06338 42.8067 3.07443 42.8067 4.25055V7.18055C42.8067 8.35667 42.4353 9.34709 41.7133 10.1931C40.9912 11.0391 40.1042 11.4517 39.0727 11.4517H29.3767C28.3452 11.4517 27.4787 11.0391 26.7361 10.1931C25.9934 9.34709 25.6221 8.35667 25.6221 7.18055V4.27119C25.6221 3.09506 25.9934 2.08401 26.7361 1.25866C27.4787 0.412675 28.3658 0 29.3767 0ZM28.7578 4.43626V6.85041C28.7578 7.32499 28.9022 7.73766 29.2116 8.08843C29.5211 8.43921 29.8718 8.60428 30.305 8.60428H38.0412C38.4744 8.60428 38.8251 8.43921 39.1346 8.08843C39.444 7.73766 39.5884 7.32499 39.5884 6.85041V4.43626C39.5884 3.96168 39.444 3.54901 39.1346 3.19823C38.8251 2.84746 38.4744 2.68239 38.0412 2.68239H30.305C29.8718 2.68239 29.5211 2.84746 29.2116 3.19823C28.9022 3.52837 28.7578 3.94105 28.7578 4.43626Z" fill="white"/>
<path d="M62.7146 0H65.8091V11.4517H62.7971V3.48711C62.7559 3.50774 62.6527 3.61091 62.467 3.75534C62.2814 3.89978 62.0751 4.08548 61.8069 4.31246C61.5387 4.53943 61.2705 4.7664 60.9611 5.03464C60.6516 5.28224 60.3628 5.55048 60.0946 5.77745C59.8058 6.02506 59.5583 6.2314 59.352 6.4171C59.125 6.6028 58.9806 6.74724 58.8775 6.82977C58.568 7.11865 58.2173 7.36625 57.8666 7.59322C57.4953 7.82019 57.1446 7.98526 56.8351 8.10907C56.6701 8.17097 56.5051 8.21224 56.34 8.2535C56.175 8.29477 56.0099 8.3154 55.8655 8.3154C55.7005 8.33604 55.5355 8.35667 55.3704 8.35667C55.2054 8.35667 55.0403 8.33604 54.8753 8.3154C54.7309 8.29477 54.5659 8.27414 54.4008 8.2535C54.2358 8.21224 54.0707 8.17097 53.9057 8.10907C53.5963 7.98526 53.2456 7.82019 52.8742 7.59322C52.5029 7.36625 52.1728 7.11865 51.8634 6.82977C51.7602 6.74724 51.5952 6.6028 51.3682 6.4171C51.1413 6.2314 50.8938 6.00442 50.6049 5.75682C50.3161 5.50921 50.0273 5.26161 49.7179 5.014C49.4084 4.7664 49.1402 4.51879 48.872 4.31246C48.6245 4.08548 48.3976 3.92041 48.2325 3.75534C48.0469 3.61091 47.9643 3.52837 47.9231 3.50774V11.4517H44.9111V0H47.985L53.5756 4.68386C53.7613 4.8283 53.947 4.97274 54.1326 5.0759C54.2977 5.17907 54.504 5.26161 54.7103 5.34414C54.9166 5.42668 55.1435 5.46795 55.391 5.46795C55.618 5.46795 55.8449 5.42668 56.0512 5.34414C56.2575 5.26161 56.4638 5.15844 56.6288 5.0759C56.8145 4.9521 57.0208 4.8283 57.1858 4.68386L62.7146 0Z" fill="white"/>
<path d="M71.4201 11.4517C70.1824 11.4517 69.2747 11.0803 68.697 10.3581C68.1194 9.63597 67.8306 8.83125 67.8306 7.944V0H70.8425V7.36625C70.8425 8.17097 71.1932 8.58364 71.8946 8.58364H81.0542V0H84.0662V11.4517H71.4201Z" fill="white"/>
<path d="M102.138 0V11.4517H99.1261V6.99484H89.1413V11.4311H86.1294V0H89.1413V4.43626H99.1261V0H102.138Z" fill="white"/>
<path d="M55.2599 37.9579C57.3229 37.9579 58.7463 38.8246 59.5096 40.5578C59.9016 41.4244 60.0872 42.4767 60.0872 43.6941C60.0872 46.1702 59.3446 47.8622 57.8386 48.7494C57.0959 49.1827 56.2501 49.4097 55.2599 49.4097H49.793V54.0935H46.7811V49.4097H41.3142C40.3239 49.4097 39.4575 49.1827 38.7355 48.7494C37.2295 47.8415 36.4868 46.1702 36.4868 43.6941C36.4868 42.4767 36.6725 41.4244 37.0644 40.5578C37.8484 38.8246 39.2512 37.9579 41.3142 37.9579H55.2599ZM46.7811 46.5416V40.826H41.7061C41.0047 40.826 40.4684 41.1149 40.1177 41.6927C39.8082 42.1879 39.6432 42.8481 39.6432 43.6941C39.6432 44.5401 39.8082 45.2004 40.1177 45.675C40.4684 46.2527 41.0047 46.5416 41.7061 46.5416H46.7811ZM54.8679 46.5416C55.5693 46.5416 56.1057 46.2527 56.4564 45.675C56.7659 45.1798 56.9309 44.5195 56.9309 43.6941C56.9309 42.8688 56.7659 42.1879 56.4564 41.6927C56.1057 41.1149 55.5693 40.826 54.8679 40.826H49.793V46.5416H54.8679Z" fill="white"/>
<path d="M65.8635 37.9579H75.5595C76.591 37.9579 77.478 38.3706 78.2001 39.196C78.9221 40.0213 79.2935 41.0324 79.2935 42.2085V45.1385C79.2935 46.3146 78.9221 47.305 78.2001 48.151C77.478 48.997 76.591 49.4097 75.5595 49.4097H65.8635C64.832 49.4097 63.9656 48.997 63.2229 48.151C62.4802 47.305 62.1089 46.3146 62.1089 45.1385V42.2291C62.1089 41.053 62.4802 40.042 63.2229 39.2166C63.9656 38.3706 64.8526 37.9579 65.8635 37.9579ZM65.2446 42.3942V44.8084C65.2446 45.2829 65.389 45.6956 65.6985 46.0464C66.0079 46.3972 66.3586 46.5622 66.7918 46.5622H74.528C74.9612 46.5622 75.3119 46.3972 75.6214 46.0464C75.9308 45.6956 76.0752 45.2829 76.0752 44.8084V42.3942C76.0752 41.9196 75.9308 41.507 75.6214 41.1562C75.3119 40.8054 74.9612 40.6403 74.528 40.6403H66.7918C66.3586 40.6403 66.0079 40.8054 65.6985 41.1562C65.389 41.4863 65.2446 41.899 65.2446 42.3942Z" fill="white"/>
<path d="M3.58958 49.4097C2.3518 49.4097 1.44409 49.0383 0.866452 48.3161C0.288819 47.5939 0 46.7892 0 45.9019V37.9579H3.01195V45.3242C3.01195 46.1289 3.36265 46.5416 4.06406 46.5416H13.2237V37.9579H16.2356V49.4097H3.58958Z" fill="white"/>
<path d="M34.3075 37.9579V49.4097H31.2956V44.9528H21.3108V49.3891H18.2988V37.9579H21.3108V42.3942H31.2956V37.9579H34.3075Z" fill="white"/>
<path d="M3.01194 30.3523H0V18.9005H15.9468V21.6035H3.01194V30.3523Z" fill="white"/>
<path d="M30.986 18.9005C33.049 18.9005 34.4724 19.7671 35.2357 21.5004C35.6277 22.367 35.8134 23.4193 35.8134 24.6367C35.8134 27.1127 35.0707 28.8047 33.5647 29.692C32.822 30.1253 31.9762 30.3522 30.986 30.3522H21.0012V35.0361H17.9893V18.9005H30.986ZM30.594 27.4842C31.2954 27.4842 31.8318 27.1953 32.1825 26.6175C32.492 26.1223 32.657 25.462 32.657 24.6367C32.657 23.8113 32.492 23.1304 32.1825 22.6352C31.8112 22.0575 31.2748 21.7686 30.594 21.7686H21.0012V27.4842H30.594Z" fill="white"/>
<path d="M52.6678 30.3522H41.4245C40.1868 30.3522 39.279 29.9808 38.7014 29.2587C38.1238 28.5365 37.835 27.7318 37.835 26.8445V18.9005H40.8469V25.8128C40.8469 26.3287 40.9707 26.7207 41.2389 27.0302C41.5071 27.3397 41.8578 27.4842 42.3116 27.4842H52.6471V18.9005H55.7003V30.7649C55.7003 32.1061 55.3496 33.1378 54.6482 33.9013C53.9468 34.6647 53.0803 35.0361 52.0076 35.0361H38.1031V32.2506H51.4919C51.9251 32.2506 52.2345 32.1061 52.4202 31.8172C52.6059 31.6109 52.6884 31.1982 52.6884 30.5586V30.3522H52.6678Z" fill="white"/>
<path d="M75.5873 18.9005H78.6611V30.3523H75.6492V22.4083C75.6079 22.4289 75.5048 22.5321 75.3191 22.6765C75.1334 22.8209 74.9271 23.0066 74.6589 23.2336C74.4114 23.4606 74.1226 23.6875 73.8131 23.9558C73.5037 24.2034 73.2149 24.4716 72.9467 24.6986C72.6579 24.9462 72.4103 25.1525 72.204 25.3382C71.9771 25.524 71.8327 25.6684 71.7295 25.7509C71.4201 26.0398 71.0694 26.2874 70.7187 26.5144C70.3473 26.7413 69.9966 26.9064 69.6872 27.0302C69.5221 27.0921 69.3571 27.1334 69.1921 27.1747C69.027 27.2159 68.862 27.2366 68.7176 27.2366C68.5525 27.2572 68.3875 27.2778 68.2225 27.2778C68.0574 27.2778 67.8924 27.2572 67.7274 27.2366C67.5829 27.2159 67.4179 27.1953 67.2529 27.1747C67.0878 27.1334 66.9228 27.0921 66.7578 27.0302C66.4483 26.9064 66.0976 26.7413 65.7263 26.5144C65.3549 26.2874 65.0249 26.0398 64.7154 25.7509C64.6123 25.6684 64.4472 25.524 64.2203 25.3382C63.9934 25.1525 63.7458 24.9256 63.457 24.678C63.1682 24.4304 62.8794 24.1828 62.5699 23.9352C62.2605 23.6875 61.9923 23.4399 61.7241 23.2336C61.4765 23.0066 61.2496 22.8416 61.0846 22.6765C60.8989 22.5321 60.8164 22.4495 60.7751 22.4289V30.3729H57.7632V18.9005H60.837L66.4277 23.5844C66.6133 23.7288 66.799 23.8732 66.9847 23.9764C67.1497 24.0796 67.356 24.1621 67.5623 24.2447C67.7686 24.3272 67.9955 24.3685 68.2431 24.3685C68.47 24.3685 68.697 24.3272 68.9032 24.2447C69.1095 24.1621 69.3158 24.059 69.4809 23.9764C69.6665 23.8526 69.8728 23.7288 70.0379 23.5844L75.5873 18.9005Z" fill="white"/>
<path d="M84.2932 30.3523C83.0554 30.3523 82.1477 29.9808 81.5701 29.2587C80.9924 28.5365 80.7036 27.7318 80.7036 26.8445V18.9005H83.7156V26.2668C83.7156 27.0715 84.0663 27.4842 84.7677 27.4842H93.9273V18.9005H96.9392V30.3523H84.2932Z" fill="white"/>
<path d="M115.011 18.9005V30.3523H111.999V25.916H102.014V30.3523H99.002V18.9005H102.014V23.3368H111.999V18.9005H115.011Z" fill="white"/>
<path d="M120.065 30.3523H117.053V18.9005H133V21.6035H120.065V30.3523Z" fill="white"/>
</svg>
